<mxfile host="app.diagrams.net" modified="2022-12-08T15:38:59.318Z" agent="5.0 (Macintosh; Intel Mac OS X 10_15_7) AppleWebKit/537.36 (KHTML, like Gecko) Chrome/108.0.0.0 Safari/537.36" etag="sw3okNWI8Y_RbdSK4yt2" version="20.6.0" type="github">
  <diagram id="YUDRRrlTtYAE9fHjLYG6" name="Page-1">
    <mxGraphModel dx="1186" dy="735" grid="1" gridSize="10" guides="1" tooltips="1" connect="1" arrows="1" fold="1" page="1" pageScale="1" pageWidth="827" pageHeight="1169" math="0" shadow="0">
      <root>
        <mxCell id="0" />
        <mxCell id="1" parent="0" />
        <mxCell id="oaWUBBJ-Uym7CbNVoqX--9" value="Hydro" style="rounded=0;whiteSpace=wrap;html=1;verticalAlign=top;" parent="1" vertex="1">
          <mxGeometry x="70" y="60" width="400" height="350" as="geometry" />
        </mxCell>
        <mxCell id="oaWUBBJ-Uym7CbNVoqX--1" value="App" style="rounded=1;whiteSpace=wrap;html=1;verticalAlign=top;" parent="1" vertex="1">
          <mxGeometry x="100" y="120" width="330" height="270" as="geometry" />
        </mxCell>
        <mxCell id="oaWUBBJ-Uym7CbNVoqX--10" value="App" style="rounded=1;whiteSpace=wrap;html=1;verticalAlign=top;" parent="1" vertex="1">
          <mxGeometry x="120" y="120" width="320" height="270" as="geometry" />
        </mxCell>
        <mxCell id="oaWUBBJ-Uym7CbNVoqX--2" value="" style="rounded=1;whiteSpace=wrap;html=1;" parent="1" vertex="1">
          <mxGeometry x="130" y="160" width="260" height="210" as="geometry" />
        </mxCell>
        <mxCell id="oaWUBBJ-Uym7CbNVoqX--3" value="Tenant" style="rounded=1;whiteSpace=wrap;html=1;verticalAlign=top;" parent="1" vertex="1">
          <mxGeometry x="150" y="160" width="260" height="210" as="geometry" />
        </mxCell>
        <mxCell id="oaWUBBJ-Uym7CbNVoqX--4" value="" style="rounded=1;whiteSpace=wrap;html=1;" parent="1" vertex="1">
          <mxGeometry x="240" y="190" width="130" height="160" as="geometry" />
        </mxCell>
        <mxCell id="oaWUBBJ-Uym7CbNVoqX--5" value="&amp;nbsp; &amp;nbsp; User" style="rounded=1;whiteSpace=wrap;html=1;verticalAlign=top;align=left;" parent="1" vertex="1">
          <mxGeometry x="260" y="190" width="130" height="160" as="geometry" />
        </mxCell>
        <mxCell id="oaWUBBJ-Uym7CbNVoqX--6" value="Client" style="rounded=1;whiteSpace=wrap;html=1;" parent="1" vertex="1">
          <mxGeometry x="310" y="80" width="70" height="250" as="geometry" />
        </mxCell>
        <mxCell id="oaWUBBJ-Uym7CbNVoqX--7" value="Client" style="rounded=1;whiteSpace=wrap;html=1;" parent="1" vertex="1">
          <mxGeometry x="330" y="80" width="50" height="250" as="geometry" />
        </mxCell>
        <mxCell id="aztGGNQ57NUzrIgP-Ihv-1" value="connector" style="rounded=1;whiteSpace=wrap;html=1;" vertex="1" parent="1">
          <mxGeometry x="160" y="190" width="60" height="160" as="geometry" />
        </mxCell>
        <mxCell id="aztGGNQ57NUzrIgP-Ihv-2" value="connector" style="rounded=1;whiteSpace=wrap;html=1;" vertex="1" parent="1">
          <mxGeometry x="170" y="190" width="60" height="160" as="geometry" />
        </mxCell>
      </root>
    </mxGraphModel>
  </diagram>
</mxfile>
